Coordinates
version=1
nRows=14
nColumns=24
inDegrees=yes

Units are S.I. units (second, meters, Newtons, ...)
Angles are in degrees.

endheader
time	pelvis_tilt	pelvis_list	pelvis_rotation	pelvis_tx	pelvis_ty	pelvis_tz	hip_flexion_r	hip_adduction_r	hip_rotation_r	knee_angle_r	ankle_angle_r	subtalar_angle_r	mtp_angle_r	hip_flexion_l	hip_adduction_l	hip_rotation_l	knee_angle_l	ankle_angle_l	subtalar_angle_l	mtp_angle_l	lumbar_extension	lumbar_bending	lumbar_rotation
      1.56250000	      3.07064642	      4.30519250	     -2.59624306	      0.44688006	      1.07508571	      0.28660148	      7.25344108	     -7.50669858	     -1.83893422	    -56.45586657	     -0.36004421	    -14.21000221	      7.05439869	      0.83645423	     10.61184858	     -3.07067010	     -1.68948948	     -4.55068173	     -8.82119355	      3.59295862	      1.21541508	     -2.60474740	      1.07598294
      1.56666667	      3.10497236	      4.41861312	     -2.52114515	      0.45186599	      1.07541420	      0.28651517	      7.78607053	     -7.57198755	     -1.65519963	    -56.33305430	      0.27250807	    -13.99201337	      6.96909838	      0.39105114	     10.74746963	     -2.98285321	     -1.48038254	     -4.42984405	     -8.69355837	      3.53368449	      1.13144983	     -2.77030485	      0.94260292
      1.57083333	      3.12872224	      4.53976201	     -2.43404913	      0.45681962	      1.07570985	      0.28637394	      8.32895788	     -7.64995627	     -1.49191496	    -56.18362319	      0.85581654	    -13.73941404	      6.87500744	     -0.03663956	     10.89273702	     -2.91423128	     -1.28029942	     -4.30452407	     -8.53956601	      3.46491474	      1.06253281	     -2.91916645	      0.80207008
      1.57500000	      3.16550087	      4.67840709	     -2.34555790	      0.46174647	      1.07599861	      0.28618693	      8.85552105	     -7.75393173	     -1.34009961	    -56.00802457	      1.39693031	    -13.46684145	      6.77287751	     -0.47702570	     11.06133519	     -2.86759019	     -1.08361487	     -4.17966217	     -8.37141213	      3.38585855	      0.99491305	     -3.07309364	      0.66191827
      1.57916667	      3.19260064	      4.81106534	     -2.26878146	      0.46669161	      1.07626579	      0.28603577	      9.38852603	     -7.84282560	     -1.17399097	    -55.78899027	      1.80917929	    -13.28956066	      6.70351262	     -0.91982502	     11.21788616	     -2.78183483	     -0.86116365	     -4.08289253	     -8.20954134	      3.32998149	      0.94367484	     -3.21319685	      0.56916957
      1.58333333	      3.21170527	      4.91700734	     -2.18247408	      0.47166741	      1.07653506	      0.28600423	      9.90778431	     -7.88277825	     -0.99735000	    -55.52226247	      2.40203788	    -12.94333162	      6.60591631	     -1.35357025	     11.32790412	     -2.75490186	     -0.65114755	     -3.92646447	     -8.01464864	      3.24414046	      0.85158178	     -3.39578677	      0.43023922
      1.58750000	      3.22235182	      5.04354254	     -2.09871062	      0.47663642	      1.07675835	      0.28591993	     10.43721128	     -7.95257775	     -0.82963912	    -55.23057273	      2.86528503	    -12.60655155	      6.50115382	     -1.78171322	     11.46583211	     -2.70039270	     -0.43149967	     -3.79946166	     -7.79572801	      3.14836042	      0.79512589	     -3.56152520	      0.29789908
      1.59166667	      3.22789125	      5.16883166	     -2.03239568	      0.48159431	      1.07695438	      0.28582429	     10.97236119	     -8.01834895	     -0.65060209	    -54.89130174	      3.02989408	    -12.54698472	      6.47699890	     -2.21366417	     11.60305255	     -2.58903230	     -0.18828662	     -3.76278636	     -7.67168765	      3.12683777	      0.73427120	     -3.62768419	      0.25941063
      1.59583333	      3.24636371	      5.29439059	     -1.97913647	      0.48653087	      1.07715043	      0.28580025	     11.48918537	     -8.07400305	     -0.45825171	    -54.52547353	      3.36668778	    -12.39260138	      6.44671131	     -2.66227524	     11.73464289	     -2.48023806	      0.06515525	     -3.66949141	     -7.51811089	      3.09564289	      0.68353102	     -3.80767879	      0.21009498
      1.60000000	      3.25795886	      5.42940354	     -1.87368189	      0.49144821	      1.07731101	      0.28566371	     11.99393113	     -8.15670022	     -0.32329721	    -54.16209067	      4.10843174	    -11.75942541	      6.35095795	     -3.07354434	     11.88289264	     -2.54628959	      0.24243195	     -3.43165921	     -7.25048293	      2.98366855	      0.61122590	     -4.03589636	      0.02461418
      1.60416667	      3.27672182	      5.56002637	     -1.80005206	      0.49639454	      1.07746897	      0.28558699	     12.48668459	     -8.22469624	     -0.16367413	    -53.73241414	      4.45057195	    -11.38465305	      6.23384558	     -3.51664203	     12.02221394	     -2.50064091	      0.47464598	     -3.31221169	     -6.98763326	      2.84983508	      0.57121941	     -4.20783891	     -0.13070425
      1.60833333	      3.26499792	      5.67524420	     -1.73382294	      0.50135604	      1.07756545	      0.28552923	     13.00558369	     -8.26719618	      0.00037923	    -53.25587915	      4.56955670	    -11.34585136	      6.21276581	     -3.93560105	     12.14144513	     -2.40461900	      0.72478747	     -3.27836784	     -6.88383851	      2.82656705	      0.51656208	     -4.27315221	     -0.16031646
      1.61250000	      3.29484502	      5.83309841	     -1.68726908	      0.50621836	      1.07765346	      0.28541123	     13.49478079	     -8.36646442	      0.16251393	    -52.79564621	      4.91237338	    -11.10636674	      6.16181196	     -4.38877891	     12.32047815	     -2.31942342	      0.96854577	     -3.14597575	     -6.71295597	      2.75988297	      0.50752857	     -4.48878243	     -0.23028989
      1.61666667	      3.25544260	      5.92212630	     -1.60015107	      0.51125421	      1.07770168	      0.28543522	     14.00201637	     -8.36656452	      0.31352447	    -52.22918030	      5.05800553	    -11.00523456	      6.14259058	     -4.78042289	     12.39641806	     -2.25624931	      1.20219664	     -3.09620120	     -6.61736444	      2.73415088	      0.43367943	     -4.57799938	     -0.26681124
